<svg xmlns="http://www.w3.org/2000/svg" viewBox="0 0 64 64" role="img" aria-label="ScoreMyDataCenter">
  <rect width="64" height="64" rx="14" fill="#102A43"></rect>
  <rect x="10" y="20" width="10" height="26" rx="2.5" fill="#FFFFFF" opacity="0.85"></rect>
  <rect x="44" y="20" width="10" height="26" rx="2.5" fill="#FFFFFF" opacity="0.85"></rect>
  <rect x="23" y="12" width="18" height="34" rx="3" fill="#FFFFFF"></rect>
  <rect x="27" y="18" width="10" height="2.5" rx="1.25" fill="#102A43"></rect>
  <rect x="27" y="25" width="10" height="2.5" rx="1.25" fill="#102A43"></rect>
  <rect x="27" y="32" width="10" height="2.5" rx="1.25" fill="#102A43"></rect>
  <rect x="27" y="39" width="10" height="2.5" rx="1.25" fill="#102A43"></rect>
  <rect x="11" y="50" width="7.2" height="5" rx="1.8" fill="#0B7A4B"></rect>
  <rect x="19.7" y="50" width="7.2" height="5" rx="1.8" fill="#6FA032"></rect>
  <rect x="28.4" y="50" width="7.2" height="5" rx="1.8" fill="#DFA918"></rect>
  <rect x="37.1" y="50" width="7.2" height="5" rx="1.8" fill="#CF6A1C"></rect>
  <rect x="45.8" y="50" width="7.2" height="5" rx="1.8" fill="#BF3B21"></rect>
</svg>