<svg xmlns="http://www.w3.org/2000/svg" viewBox="0 0 64 64" role="img" aria-label="Data Center Grade icône">
  <rect width="64" height="64" rx="14" fill="#102A43"/>
  <rect x="10" y="20" width="10" height="26" rx="2.5" fill="#FFFFFF" opacity="0.85"/>
  <rect x="44" y="20" width="10" height="26" rx="2.5" fill="#FFFFFF" opacity="0.85"/>
  <rect x="23" y="12" width="18" height="34" rx="3" fill="#FFFFFF"/>
  <rect x="27" y="18" width="10" height="2.5" rx="1.25" fill="#102A43"/>
  <rect x="27" y="25" width="10" height="2.5" rx="1.25" fill="#102A43"/>
  <rect x="27" y="32" width="10" height="2.5" rx="1.25" fill="#102A43"/>
  <rect x="27" y="39" width="10" height="2.5" rx="1.25" fill="#102A43"/>
  <rect x="11" y="50" width="7.2" height="5" rx="1.8" fill="#038141"/>
  <rect x="19.7" y="50" width="7.2" height="5" rx="1.8" fill="#85BB2F"/>
  <rect x="28.4" y="50" width="7.2" height="5" rx="1.8" fill="#FECB02"/>
  <rect x="37.1" y="50" width="7.2" height="5" rx="1.8" fill="#EF8200"/>
  <rect x="45.8" y="50" width="7.2" height="5" rx="1.8" fill="#E63E11"/>
</svg>
